<svg width="491" height="444" viewBox="0 0 491 444" fill="none" xmlns="http://www.w3.org/2000/svg">
<path d="M129.145 352.454H133.722V444H116.394V363.57C116.394 360.954 121.952 352.454 129.145 352.454ZM223.961 372.725C215.46 372.725 208.921 376.321 204.344 383.514V352.454H202.382C193.882 352.454 189.304 357.031 187.016 360.955V360.3V412.94C187.016 433.538 197.805 444 219.384 444C240.962 443.673 251.425 431.903 251.425 409.016C251.425 385.149 242.27 373.379 223.961 372.725ZM218.73 428.96C208.921 428.96 204.017 421.767 204.344 408.035C204.998 394.63 209.575 388.091 219.057 388.091C228.538 388.091 233.116 394.63 233.77 408.035C233.77 422.094 228.538 428.96 218.73 428.96ZM261.56 408.035C262.214 385.803 273.004 373.379 296.217 373.379H301.449V391.361H293.275C283.466 391.361 279.216 397.573 279.216 407.708V443.673H261.56V408.035ZM328.912 426.018C331.855 428.633 335.779 429.941 341.01 429.941C344.606 429.941 347.876 428.96 350.492 426.999C353.107 425.037 354.742 423.075 355.396 421.113H371.743C369.128 429.287 365.204 434.846 359.646 438.442C354.088 442.038 347.876 443.673 340.029 443.673C334.798 443.673 329.893 442.693 325.643 441.058C321.393 439.423 317.796 436.807 314.854 433.865C311.911 430.595 309.623 426.999 307.988 422.748C306.353 418.498 305.699 413.594 305.699 408.363C305.699 403.458 306.68 398.554 308.315 394.304C309.949 390.053 312.238 386.13 315.181 383.187C318.123 379.918 321.72 377.629 325.97 375.667C330.221 373.706 334.798 373.052 340.029 373.052C345.587 373.052 350.818 374.033 355.069 376.321C359.319 378.61 362.916 381.552 365.531 385.149C368.147 388.745 370.108 392.996 371.416 397.9C372.724 402.477 373.051 407.708 372.724 412.94H324.008C324.662 419.152 326.297 423.402 328.912 426.018ZM349.837 390.707C347.549 388.418 344.279 387.111 339.702 387.111C336.759 387.111 334.144 387.765 332.182 388.746C330.22 389.726 328.586 391.034 327.605 392.342C326.297 393.977 325.643 395.285 324.989 396.919C324.335 398.554 324.335 400.188 324.008 401.496H354.088C353.761 396.592 352.126 392.996 349.837 390.707ZM152.359 352.454H169.687V368.147H152.359V352.454ZM152.359 375.994H169.687V443.673H152.359V375.994ZM468.521 316.162C465.578 319.432 461.655 321.393 456.751 321.393C451.847 321.393 447.923 319.432 444.98 316.162C442.038 312.892 441.057 307.334 441.057 300.795C441.057 293.929 442.365 289.025 444.98 285.756C447.923 282.486 451.847 280.524 456.751 280.524C461.655 280.524 465.578 282.486 468.521 285.756C471.464 289.025 472.444 294.583 472.444 300.795C472.444 307.008 471.464 312.239 468.521 316.162ZM482.253 275.62C477.022 268.754 468.194 264.831 456.751 264.831C445.634 264.831 436.48 268.1 431.248 275.62C426.017 282.486 422.748 290.987 422.748 300.469C422.748 310.277 425.69 318.778 431.248 325.317C436.48 332.183 445.307 335.779 456.751 335.779C467.867 335.779 477.022 332.51 482.253 325.317C487.484 318.451 490.753 309.95 490.753 300.469C491.08 291.314 488.138 282.813 482.253 275.62ZM397.245 316.162C394.957 319.432 391.033 321.393 386.129 321.393C381.225 321.393 377.301 319.432 375.34 316.162C373.051 312.239 372.07 307.334 372.07 300.795C372.07 294.91 373.051 290.333 375.34 286.736C377.628 282.813 381.225 280.851 386.456 280.851C389.726 280.851 392.668 281.832 395.284 283.794C399.207 287.063 401.496 293.603 401.496 302.103C400.515 307.988 399.861 312.892 397.245 316.162ZM417.517 244.887C417.517 244.887 399.861 242.925 399.861 256.984V275.62C397.899 272.677 395.611 270.389 392.014 268.1C389.072 266.139 385.148 265.811 381.225 265.811C372.397 265.811 365.531 269.081 359.973 275.62C354.742 281.832 352.126 291.314 352.126 303.084C352.126 312.892 354.415 321.393 359.973 326.952C365.204 333.164 375.667 335.779 384.821 335.779C417.19 335.779 416.536 308.315 416.536 308.315L417.517 244.887ZM330.547 307.988C330.547 313.873 328.585 317.797 325.643 320.086C322.373 322.047 318.777 323.355 315.181 323.355C312.892 323.355 310.93 323.028 309.295 321.393C307.661 319.758 307.007 318.124 307.007 315.181C307.007 311.912 308.314 309.296 310.93 307.661C312.238 306.681 315.181 305.7 318.777 305.373L322.701 304.392C324.662 304.065 325.97 303.411 327.605 303.411C328.586 303.084 329.894 302.43 330.874 302.103L330.547 307.988ZM339.375 269.735C333.49 266.792 327.278 265.485 319.758 265.485C308.642 265.485 300.468 268.427 295.89 274.312C292.948 278.236 291.64 282.813 290.986 288.371H307.661C307.988 286.082 308.969 284.121 309.949 282.486C311.911 280.525 314.854 279.544 318.777 279.544C322.7 279.544 324.989 279.871 327.278 280.851C329.239 281.832 330.22 283.794 330.22 286.736C330.22 289.025 328.913 290.66 326.297 291.641C324.989 291.968 322.374 292.622 319.431 292.949L313.546 293.275C306.68 294.256 301.776 295.564 298.179 297.526C291.967 300.795 288.698 307.335 288.698 315.181C288.698 321.393 290.659 326.298 294.582 329.894C298.506 333.164 303.41 334.798 309.623 335.125C347.876 336.433 347.549 314.854 347.549 310.604V285.756C347.876 278.563 345.26 272.678 339.375 269.735ZM252.733 280.524C256.983 280.524 260.253 281.832 262.541 284.448C263.849 286.41 264.83 288.698 264.83 291.314H283.466C282.486 281.832 279.216 274.966 273.658 271.697C268.427 267.773 260.906 266.466 252.079 266.466C241.616 266.466 233.443 269.408 227.557 275.947C221.672 282.486 218.73 291.314 218.73 302.43C218.73 312.893 221.019 320.74 226.577 326.952C231.808 333.164 240.309 336.433 251.425 336.433C262.541 336.433 271.042 332.51 276.927 325.317C280.197 320.413 282.158 315.508 282.812 309.95H264.176C263.849 313.219 262.868 316.162 260.907 318.451C258.945 320.413 256.002 321.72 251.425 321.72C245.54 321.72 240.963 318.778 239.328 313.219C238.347 310.277 237.366 306.353 237.366 301.449C237.366 296.545 237.693 291.968 239.328 289.352C242.271 283.467 246.194 280.524 252.733 280.524ZM213.826 265.811C174.918 265.811 177.534 300.141 177.534 300.141V334.798H195.19V302.43C195.19 297.199 195.516 292.949 197.151 290.66C199.44 286.41 204.017 283.794 211.21 283.794H213.172C214.153 283.794 215.133 283.794 216.114 284.121V266.466H214.807C214.48 265.812 214.48 265.811 213.826 265.811ZM126.202 283.794C128.491 281.505 132.088 279.87 136.665 279.87C140.589 279.87 144.185 280.851 147.127 283.14C150.07 285.429 151.378 289.025 151.378 293.602H121.298C122.279 289.679 123.587 286.409 126.202 283.794ZM149.743 316.162C149.416 317.143 148.435 318.124 147.454 318.451C145.166 320.413 141.569 320.739 137.646 320.739C133.722 320.739 130.78 320.413 128.164 318.451C123.914 316.162 121.298 310.931 121.298 304.719H169.687C169.687 298.834 169.687 294.256 169.36 291.641C168.379 286.409 167.072 281.832 164.129 277.909C161.187 273.658 157.263 270.062 153.013 268.1C148.762 266.139 143.204 265.158 137.319 265.158C127.51 265.158 119.664 268.1 113.778 274.639C107.893 280.851 104.297 289.679 104.297 301.122C104.297 313.22 107.566 322.374 114.759 327.605C121.625 332.837 129.472 336.106 138.3 336.106C149.089 336.106 157.59 332.836 163.148 326.297C166.418 323.028 168.379 319.432 169.033 315.835L149.743 316.162ZM96.7768 334.471H80.4292V294.256C80.4292 290.333 79.4484 282.159 68.659 282.159C61.793 282.159 56.562 287.063 56.562 294.256V334.471H40.2144V294.256C40.2144 290.333 39.2336 282.159 28.4442 282.159C21.5782 282.159 16.6736 287.063 16.6736 294.256V334.471H0.32605V294.583C0.32605 277.909 11.1155 265.158 28.1169 265.158C36.6177 265.158 43.4839 268.427 48.3882 274.639C53.2924 268.754 60.1583 265.158 68.659 265.158C86.3144 265.158 96.4499 277.255 96.4499 294.583L96.7768 334.471ZM401.823 101.682C401.823 45.7731 332.182 0 246.194 0C160.206 0 90.565 45.7731 90.565 101.682V107.567C90.565 167.072 151.378 215.134 246.194 215.134C341.337 215.134 401.823 167.072 401.823 107.567V101.682Z" fill="#2D3277"/>
<path d="M396.265 101.682C396.265 154.321 329.239 197.151 246.848 197.151C164.456 197.151 97.4309 154.321 97.4309 101.682C97.4309 49.0424 164.456 6.21191 246.848 6.21191C329.239 6.21191 396.265 49.0424 396.265 101.682Z" fill="#FFE600"/>
<path d="M197.151 71.6026C197.151 71.6026 195.516 73.237 196.497 74.5448C198.786 77.4874 205.979 79.1222 213.499 77.4875C217.749 76.5066 223.634 71.9293 228.865 67.6789C234.75 63.1016 240.635 58.1972 246.521 56.5625C252.733 54.6008 256.656 55.5817 259.272 56.2356C262.214 57.2165 265.484 59.1781 271.042 63.1015C281.177 70.6214 322.373 106.586 329.566 112.798C335.125 110.183 360.627 99.3934 395.284 91.5465C392.341 73.2372 381.225 56.2358 364.223 42.5038C340.683 52.3123 311.584 57.5437 283.139 43.8117C283.139 43.8117 267.773 36.6184 252.406 36.9454C229.846 37.5993 220.365 47.081 209.902 57.5435L197.151 71.6026Z" fill="white"/>
<path d="M327.932 116.721C327.605 116.395 279.543 74.5446 268.754 66.3708C262.541 61.7935 258.945 60.4857 255.348 59.8318C253.387 59.5049 250.771 59.832 248.809 60.486C243.905 61.7938 237.039 66.3709 231.154 70.9482C224.942 75.8525 219.384 80.4301 214.152 81.4109C207.286 83.0457 199.113 81.0839 195.516 78.4683C193.882 77.4874 192.901 76.1797 192.247 74.8719C190.939 71.6024 193.555 68.9867 193.882 68.6597L206.96 54.2738L211.537 49.6964C207.287 50.3503 203.363 51.3313 199.44 52.3122C194.535 53.62 189.958 54.9275 185.381 54.9275C183.419 54.9275 172.957 53.2929 170.995 52.639C158.898 49.3695 148.435 46.1002 132.741 38.9072C114.105 52.9661 101.354 70.2946 97.7578 89.5847C100.373 90.2386 104.951 91.5463 106.585 91.8732C149.089 101.355 162.167 111.163 164.783 113.125C167.398 110.183 170.995 108.548 175.245 108.548C179.822 108.548 184.073 110.836 186.688 114.433C188.977 112.471 192.574 110.837 196.824 110.837C198.786 110.837 200.747 111.163 203.036 111.817C207.94 113.452 210.229 116.722 211.537 119.664C213.172 119.01 215.133 118.356 217.422 118.356C219.711 118.356 222 119.01 224.615 119.991C232.462 123.26 233.77 131.108 233.116 136.993H234.751C244.232 136.993 251.752 144.512 251.752 153.994C251.752 156.937 251.098 159.552 249.79 161.841C252.406 163.149 258.618 166.418 264.503 165.764C269.08 165.11 270.715 163.802 271.369 162.822C271.696 162.168 272.35 161.514 271.696 160.86L259.599 147.455C259.599 147.455 257.637 145.493 258.291 144.839C258.945 144.185 260.253 145.166 261.234 145.82C267.446 151.051 274.638 158.571 274.638 158.571C274.638 158.571 275.292 159.552 277.908 160.206C280.197 160.533 284.447 160.206 287.39 157.917C288.044 157.263 289.024 156.61 289.351 155.956C292.294 152.032 289.024 148.109 289.024 148.109L274.965 132.415C274.965 132.415 273.004 130.453 273.658 129.8C274.312 129.146 275.619 130.127 276.6 130.781C281.177 134.377 287.39 140.916 293.275 146.801C294.583 147.782 299.814 151.051 306.68 146.474C310.93 143.531 311.911 140.262 311.584 137.646C311.257 134.377 308.641 131.761 308.641 131.761L289.678 112.471C289.678 112.471 287.717 110.836 288.371 109.856C289.025 109.202 290.332 110.183 291.313 110.837C297.525 116.068 313.873 131.107 313.873 131.107C314.2 131.107 319.758 135.358 326.951 130.781C329.566 129.146 331.201 126.857 331.201 123.915C331.528 119.664 327.932 116.721 327.932 116.721Z" fill="white"/>
<path d="M235.404 141.243C232.462 141.243 229.192 142.878 228.865 142.878C228.538 142.878 228.865 141.57 229.192 140.916C229.519 140.262 233.443 128.492 223.961 124.241C216.768 120.972 212.191 124.568 210.883 126.203C210.556 126.53 210.229 126.53 210.229 126.203C210.229 124.241 209.248 118.356 202.709 116.395C193.555 113.452 187.996 119.991 186.362 122.28C185.708 117.049 181.457 113.125 175.899 113.125C170.014 113.125 165.437 117.702 165.437 123.587C165.437 129.472 170.014 134.05 175.899 134.05C178.842 134.05 181.13 133.069 183.092 131.107V131.434C182.765 134.05 181.784 143.532 191.593 147.128C195.516 148.763 198.786 147.455 201.729 145.493C202.709 144.839 202.709 145.166 202.709 145.82C202.382 148.109 202.709 153.34 210.229 156.282C215.787 158.571 219.057 156.283 221.018 154.321C221.999 153.34 222.326 153.667 222.326 154.975C222.653 161.841 228.538 167.399 235.404 167.399C242.597 167.399 248.482 161.514 248.482 154.321C248.482 147.128 242.597 141.243 235.404 141.243Z" fill="white"/>
<path d="M329.893 111.817C315.181 99.0662 281.177 69.3137 271.696 62.4477C266.465 58.5243 262.868 56.2357 259.599 55.5818C258.291 55.2548 256.329 54.6008 253.714 54.6008C251.425 54.6008 248.809 54.9278 246.194 55.9086C240.309 57.8703 234.424 62.4478 228.538 67.0251L228.212 67.3519C222.98 71.6023 217.422 75.8528 213.172 76.8336C211.21 77.1606 209.575 77.4874 207.613 77.4874C203.036 77.4874 198.786 76.1796 197.151 74.2178C196.824 73.8909 197.151 73.237 197.805 72.5831L210.883 58.5244C221.018 48.3889 230.5 38.9071 252.733 38.2532H253.714C267.445 38.2532 281.178 44.4652 282.812 45.1191C295.89 51.3312 308.968 54.6008 322.373 54.6008C336.432 54.6008 350.818 51.0044 365.858 44.1385C364.223 42.8307 362.262 41.1957 360.627 39.8879C347.222 45.7731 334.798 48.3886 322.373 48.3886C309.949 48.3886 297.525 45.4462 285.428 39.5611C284.774 39.2341 269.734 32.041 253.714 32.041H252.406C233.77 32.368 223.307 38.9071 216.441 44.7922C209.575 44.7922 203.69 46.7539 198.459 48.0617C193.882 49.3695 189.631 50.3506 185.708 50.3506H180.804C176.226 50.3506 153.34 44.7924 135.357 37.5994C133.396 38.9072 131.761 40.2149 129.799 41.5227C148.762 49.3695 171.976 55.2547 179.169 55.9086C181.131 55.9086 183.419 56.2355 185.708 56.2355C190.612 56.2355 195.19 54.9279 200.094 53.6201C203.036 52.9662 205.979 51.9851 208.921 51.3312L206.306 53.947L193.227 68.333C192.247 69.3138 189.958 72.2562 191.266 75.5257C191.92 76.8335 193.227 78.1412 194.862 79.449C198.132 81.4107 203.69 83.0458 208.921 83.0458C210.883 83.0458 212.845 82.7186 214.479 82.3916C220.038 81.0838 225.923 76.5067 231.808 71.6025C236.712 67.6791 243.578 62.7745 248.809 61.1398C250.444 60.8128 252.079 60.486 253.714 60.486H255.021C258.618 60.813 261.887 62.1209 268.099 66.6982C278.889 74.872 326.951 116.721 327.278 117.048C327.278 117.048 330.22 119.664 330.22 124.242C330.22 126.53 328.586 128.819 326.297 130.454C324.335 131.762 322.047 132.415 320.085 132.415C316.815 132.415 314.527 130.781 314.527 130.781C314.527 130.781 297.852 115.741 291.967 110.509C290.986 109.529 290.005 108.875 289.024 108.875C288.371 108.875 288.044 109.202 287.717 109.529C286.736 110.837 287.717 112.471 289.024 113.452L308.315 132.742C308.315 132.742 310.603 135.031 310.93 137.973C310.93 141.243 309.623 143.859 306.353 145.82C304.064 147.455 301.775 148.109 299.487 148.109C296.544 148.109 294.583 146.801 293.929 146.474L290.986 143.859C286.082 138.954 280.851 133.723 276.927 130.781C275.947 130.127 274.966 129.146 273.985 129.146C273.658 129.146 273.004 129.146 272.677 129.8C272.35 130.127 272.023 131.108 273.004 132.742C273.331 133.396 273.985 133.723 273.985 133.723L288.043 149.417C288.043 149.417 290.986 153.013 288.371 155.956L287.717 156.61L286.409 157.917C284.12 159.879 280.851 160.206 279.543 160.206H277.581C276.273 159.879 275.292 159.552 274.639 158.898C273.985 157.918 266.792 151.051 260.907 146.147C260.253 145.493 259.272 144.839 258.291 144.839C257.964 144.839 257.31 145.167 256.983 145.493C256.002 146.801 257.637 148.763 258.291 149.417L270.388 162.495C270.388 162.495 270.388 162.822 270.061 163.476C269.734 164.13 268.1 165.437 263.849 166.091H262.215C257.637 166.091 253.06 163.803 250.444 162.495C251.425 160.206 252.079 157.591 252.079 154.975C252.079 145.167 244.232 137.32 234.424 137.32H233.77C234.097 132.742 233.443 124.242 224.615 120.645C222 119.664 219.711 119.01 217.095 119.01C215.133 119.01 213.499 119.337 211.537 119.991C209.575 116.395 206.633 113.779 202.709 112.471C200.42 111.818 198.459 111.49 196.17 111.49C192.574 111.49 189.304 112.471 186.362 114.76C184.941 113.011 183.146 111.604 181.109 110.642C179.072 109.679 176.844 109.188 174.591 109.202C170.668 109.202 166.745 110.836 164.129 113.452C160.533 110.509 145.82 101.355 106.258 92.2002C104.297 91.8732 100.047 90.5657 97.4309 89.5848C97.104 91.5465 96.7768 93.8352 96.4499 96.1238C96.4499 96.1238 103.643 97.7585 105.278 98.0855C145.493 106.913 158.898 116.395 161.186 118.029C160.533 119.991 160.205 121.953 160.205 123.915C160.205 132.415 167.071 138.954 175.245 138.954C176.226 138.954 177.207 138.954 178.188 138.628C179.496 144.84 183.419 149.417 189.631 151.706C191.593 152.36 193.227 152.686 194.862 152.686C195.843 152.686 197.151 152.686 198.459 152.359C199.44 155.302 202.055 158.898 207.94 161.187C209.902 162.168 211.864 162.495 213.826 162.495C215.46 162.495 217.095 162.168 218.403 161.514C221.019 168.053 227.558 172.63 234.751 172.63C239.655 172.63 244.232 170.669 247.502 167.072C250.444 168.707 256.329 171.65 262.541 171.65H264.83C271.042 170.996 273.658 168.38 274.965 166.745C275.292 166.418 275.293 166.091 275.62 165.764C276.927 166.091 278.562 166.418 280.524 166.418C283.793 166.418 287.063 165.437 290.332 162.822C293.602 160.533 295.89 157.264 295.89 154.321C296.871 154.648 298.179 154.648 299.16 154.648C302.429 154.648 306.026 153.667 309.295 151.378C315.507 147.455 316.488 141.897 316.488 138.628C317.469 138.954 318.777 138.954 319.758 138.954C323.028 138.954 326.297 137.973 329.24 136.012C333.163 133.396 335.452 129.8 335.779 125.549C336.106 122.607 335.124 119.664 333.817 117.048C344.279 112.471 367.82 103.97 395.937 97.4313C395.937 95.1427 395.611 93.181 394.957 90.8923C361.281 98.0852 336.105 108.875 329.893 111.817V111.817ZM235.404 166.418C228.865 166.418 223.634 161.187 223.307 154.648C223.307 153.994 223.307 152.686 221.999 152.686C221.345 152.686 221.019 153.013 220.365 153.34C219.057 154.648 217.095 155.956 214.479 155.956C213.172 155.956 211.864 155.629 210.556 154.975C203.69 152.033 203.363 147.455 203.69 145.493C203.69 144.84 203.69 144.513 203.363 144.186L203.036 143.859H202.709C202.382 143.859 202.055 143.859 201.401 144.512C199.44 145.82 197.478 146.474 195.516 146.474C194.536 146.474 193.228 146.147 192.247 145.82C183.092 142.224 183.746 133.723 184.4 131.108C184.4 130.454 184.4 130.127 184.073 129.8L183.419 129.146L182.765 129.8C180.803 131.434 178.515 132.415 176.226 132.415C170.995 132.415 166.744 128.165 166.744 122.934C166.744 117.702 170.995 113.452 176.226 113.452C180.803 113.452 185.054 117.049 185.708 121.626L186.035 124.242L187.343 121.953C187.343 121.626 191.266 115.741 198.459 116.068C199.767 116.068 201.074 116.395 202.709 116.722C208.267 118.356 209.248 123.588 209.248 125.549C209.248 126.857 210.229 126.857 210.229 126.857C210.556 126.857 211.21 126.53 211.21 126.203C212.191 125.222 214.48 123.261 218.076 123.261C219.711 123.261 221.346 123.588 223.307 124.568C232.135 128.492 228.212 139.608 228.212 139.935C227.558 141.897 227.231 142.551 228.212 143.205H228.865C229.192 143.205 229.846 143.205 230.5 142.878C231.808 142.551 233.443 141.897 235.077 141.897C241.616 141.897 247.174 147.455 247.174 153.994C247.501 161.187 241.943 166.418 235.404 166.418V166.418Z" fill="#2D3277"/>
</svg>
